<?xml version="1.0" encoding="UTF-8" standalone="no"?>
<svg width="150px" height="43px" viewBox="0 0 150 43" version="1.1" xmlns="http://www.w3.org/2000/svg" xmlns:xlink="http://www.w3.org/1999/xlink">
    <!-- Generator: Sketch 3.6.1 (26313) - http://www.bohemiancoding.com/sketch -->
    <title>Group 2</title>
    <desc>Created with Sketch.</desc>
    <defs></defs>
    <g id="Page-1" stroke="none" stroke-width="1" fill="none" fill-rule="evenodd">
        <g id="Stock-list-Market-closed" transform="translate(-278.000000, -361.000000)">
            <g id="GOOG" transform="translate(29.000000, 344.000000)">
                <g id="Group-2" transform="translate(249.000000, 17.000000)">
                    <path d="M144.75,41 L141.960582,37.2807764 L141.863803,36.8936609 L141.700807,36.9344099 L141.6,36.8 L141.280776,37.0394177 L137.609612,37.9572088 L134,35.25 L134,35 L133.666667,35 L133.4,34.8 L133.25,35 L129.666667,35 L126,32.25 L126,32 L125.666667,32 L125.4,31.8 L125.25,32 L119.527693,32 L110.714991,31.020811 L101,22.2773188 L101,22 L100.691868,22 L100.462835,21.7938706 L100.277319,22 L91.7071068,22 L89.1699988,19.462892 L89.2027819,19.4219131 L88.8339718,19.126865 L88.5,18.7928932 L88.462892,18.8300012 L88.4219131,18.7972181 L88.126865,19.1660282 L87.7928932,19.5 L87.8300012,19.537108 L84.5751385,23.6056863 L79.9596465,15.2978007 L79.8162278,14.8675445 L79.7355547,14.8944355 L79.6942572,14.8200999 L79.2978007,15.0403535 L70.4188612,18 L62.618034,18 L54.8423708,14.1121684 L51.1009252,8.5 L51.1933752,8.36132495 L50.8605551,8.13944487 L50.638675,7.80662475 L50.5,7.89907479 L50.361325,7.80662475 L50.1394449,8.13944487 L49.8066248,8.36132495 L49.8990748,8.5 L46.2864272,13.9189714 L39.8488486,12.0796632 L36,4.38196601 L36,4 L35.809017,4 L35.7236068,3.82917961 L35.381966,4 L32.5962912,4 L32.221457,3.85006632 L32.1614835,4 L32,4 L32,4.4037088 L28.4203508,13.3528317 L25.0597224,7.47173191 L25.159975,7.24616346 L24.852818,7.10964922 L24.6860521,6.81780896 L24.4717319,6.94027764 L24.2461635,6.84002499 L24.1096492,7.14718204 L23.817809,7.3139479 L23.9402776,7.52826809 L20.2556036,15.8187848 L17.0947611,14.2383636 L17.1181225,14.1565986 L16.6820427,14.0320043 L16.2763932,13.8291796 L16.2383636,13.9052389 L16.1565986,13.8818775 L16.0320043,14.3179573 L15.8291796,14.7236068 L15.9052389,14.7616364 L12.1627006,27.8605206 L9.87811304,27.0989914 L6.02428369,17.464418 L6.10633906,17.1361966 L5.86929022,17.0769344 L5.77854301,16.8500663 L5.46441803,16.9757163 L1.62126781,16.0149287 L1.13619656,15.8936609 L0.893660937,16.8638034 L1.37873219,16.9850713 L5.13070978,17.9230656 L8.96773999,27.5156412 L8.86754447,27.8162278 L9.12188696,27.9010086 L9.22145699,28.1499337 L9.51564119,28.03226 L11.8877199,28.8229529 L11.8818775,28.8434014 L12.352193,28.9777773 L12.8162278,29.1324555 L12.8229529,29.1122801 L12.8434014,29.1181225 L12.9777773,28.647807 L13.1324555,28.1837722 L13.1122801,28.1770471 L16.8152526,15.2166433 L19.8490457,16.7335399 L19.840025,16.7538365 L20.2865519,16.9522929 L20.7236068,17.1708204 L20.7335399,17.1509543 L20.7538365,17.159975 L20.9522929,16.7134481 L21.1708204,16.2763932 L21.1509543,16.2664601 L24.5558313,8.60548691 L27.9461004,14.5384579 L27.8500663,14.778543 L28.1523957,14.8994748 L28.3139479,15.182191 L28.5384579,15.0538996 L28.778543,15.1499337 L28.8994748,14.8476043 L29.182191,14.6860521 L29.0538996,14.4615421 L32.8385165,5 L35.190983,5 L38.965807,12.549648 L38.8818775,12.8434014 L39.1511514,12.9203368 L39.2763932,13.1708204 L39.549648,13.034193 L46.2875919,14.9593198 L46.638675,15.1933752 L46.7135728,15.0810286 L46.8434014,15.1181225 L46.9593198,14.7124081 L50.5,9.40138782 L53.9230223,14.5359213 L53.8291796,14.7236068 L54.1576292,14.8878316 L54.361325,15.1933752 L54.5359213,15.0769777 L62,18.809017 L62,19 L62.381966,19 L62.7236068,19.1708204 L62.809017,19 L70.1396204,19 L70.1837722,19.1324555 L70.5811388,19 L71,19 L71,18.8603796 L79.2644453,16.1055645 L83.9000152,24.4495904 L83.7972181,24.5780869 L84.1107494,24.828912 L84.3057428,25.1799001 L84.4495904,25.0999848 L84.5780869,25.2027819 L84.828912,24.8892506 L85.1799001,24.6942572 L85.0999848,24.5504096 L88.5414594,20.2485662 L91,22.7071068 L91,23 L91.2928932,23 L91.5,23.2071068 L91.7071068,23 L100.308132,23 L109.97471,31.69992 L109.947842,31.9417261 L110.285009,31.979189 L110.537165,32.2061294 L110.69992,32.0252903 L119,32.9475214 L119,33 L119.472307,33 L119.941726,33.0521576 L119.947521,33 L125.333333,33 L129,35.75 L129,36 L129.333333,36 L129.6,36.2 L129.75,36 L133.333333,36 L137.057984,38.7934878 L137.136197,39.1063391 L137.390388,39.0427912 L137.6,39.2 L137.793488,38.9420163 L141.299193,38.0655901 L144,41.6666667 L144,42 L144.25,42 L144.4,42.2 L144.666667,42 L148.5,42 L149,42 L149,41 L148.5,41 L144.75,41 Z" id="GOOG" stroke="#F45531" stroke-linecap="square" fill="#F45531"></path>
                    <path d="M13,2 C13.5522847,2 14,1.55228475 14,1 C14,0.44771525 13.5522847,0 13,0 C12.4477153,0 12,0.44771525 12,1 C12,1.55228475 12.4477153,2 13,2 Z M3,2 C3.55228475,2 4,1.55228475 4,1 C4,0.44771525 3.55228475,0 3,0 C2.44771525,0 2,0.44771525 2,1 C2,1.55228475 2.44771525,2 3,2 Z M23,2 C23.5522847,2 24,1.55228475 24,1 C24,0.44771525 23.5522847,0 23,0 C22.4477153,0 22,0.44771525 22,1 C22,1.55228475 22.4477153,2 23,2 Z M33,2 C33.5522847,2 34,1.55228475 34,1 C34,0.44771525 33.5522847,0 33,0 C32.4477153,0 32,0.44771525 32,1 C32,1.55228475 32.4477153,2 33,2 Z M43,2 C43.5522847,2 44,1.55228475 44,1 C44,0.44771525 43.5522847,0 43,0 C42.4477153,0 42,0.44771525 42,1 C42,1.55228475 42.4477153,2 43,2 Z M53,2 C53.5522847,2 54,1.55228475 54,1 C54,0.44771525 53.5522847,0 53,0 C52.4477153,0 52,0.44771525 52,1 C52,1.55228475 52.4477153,2 53,2 Z M63,2 C63.5522847,2 64,1.55228475 64,1 C64,0.44771525 63.5522847,0 63,0 C62.4477153,0 62,0.44771525 62,1 C62,1.55228475 62.4477153,2 63,2 Z M73,2 C73.5522847,2 74,1.55228475 74,1 C74,0.44771525 73.5522847,0 73,0 C72.4477153,0 72,0.44771525 72,1 C72,1.55228475 72.4477153,2 73,2 Z M83,2 C83.5522847,2 84,1.55228475 84,1 C84,0.44771525 83.5522847,0 83,0 C82.4477153,0 82,0.44771525 82,1 C82,1.55228475 82.4477153,2 83,2 Z M93,2 C93.5522847,2 94,1.55228475 94,1 C94,0.44771525 93.5522847,0 93,0 C92.4477153,0 92,0.44771525 92,1 C92,1.55228475 92.4477153,2 93,2 Z M103,2 C103.552285,2 104,1.55228475 104,1 C104,0.44771525 103.552285,0 103,0 C102.447715,0 102,0.44771525 102,1 C102,1.55228475 102.447715,2 103,2 Z M113,2 C113.552285,2 114,1.55228475 114,1 C114,0.44771525 113.552285,0 113,0 C112.447715,0 112,0.44771525 112,1 C112,1.55228475 112.447715,2 113,2 Z M123,2 C123.552285,2 124,1.55228475 124,1 C124,0.44771525 123.552285,0 123,0 C122.447715,0 122,0.44771525 122,1 C122,1.55228475 122.447715,2 123,2 Z M133,2 C133.552285,2 134,1.55228475 134,1 C134,0.44771525 133.552285,0 133,0 C132.447715,0 132,0.44771525 132,1 C132,1.55228475 132.447715,2 133,2 Z M143,2 C143.552285,2 144,1.55228475 144,1 C144,0.44771525 143.552285,0 143,0 C142.447715,0 142,0.44771525 142,1 C142,1.55228475 142.447715,2 143,2 Z" id="Oval-7-Copy-15" fill="#8A8A8A"></path>
                </g>
            </g>
        </g>
    </g>
</svg>