<?xml version="1.0" encoding="UTF-8" standalone="no"?>
<svg width="155px" height="56px" viewBox="0 0 155 56" version="1.1" xmlns="http://www.w3.org/2000/svg" xmlns:xlink="http://www.w3.org/1999/xlink">
    <!-- Generator: Sketch 3.6.1 (26313) - http://www.bohemiancoding.com/sketch -->
    <title>Group</title>
    <desc>Created with Sketch.</desc>
    <defs></defs>
    <g id="Page-1" stroke="none" stroke-width="1" fill="none" fill-rule="evenodd">
        <g id="Stock-list-Market-closed" transform="translate(-277.000000, -1137.000000)">
            <g id="TSLA" transform="translate(29.000000, 1137.000000)">
                <g id="Group" transform="translate(248.000000, 0.000000)">
                    <path d="M24,50 C24.5522847,50 25,49.5522847 25,49 C25,48.4477153 24.5522847,48 24,48 C23.4477153,48 23,48.4477153 23,49 C23,49.5522847 23.4477153,50 24,50 Z M14,50 C14.5522847,50 15,49.5522847 15,49 C15,48.4477153 14.5522847,48 14,48 C13.4477153,48 13,48.4477153 13,49 C13,49.5522847 13.4477153,50 14,50 Z M34,50 C34.5522847,50 35,49.5522847 35,49 C35,48.4477153 34.5522847,48 34,48 C33.4477153,48 33,48.4477153 33,49 C33,49.5522847 33.4477153,50 34,50 Z M44,50 C44.5522847,50 45,49.5522847 45,49 C45,48.4477153 44.5522847,48 44,48 C43.4477153,48 43,48.4477153 43,49 C43,49.5522847 43.4477153,50 44,50 Z M54,50 C54.5522847,50 55,49.5522847 55,49 C55,48.4477153 54.5522847,48 54,48 C53.4477153,48 53,48.4477153 53,49 C53,49.5522847 53.4477153,50 54,50 Z M64,50 C64.5522847,50 65,49.5522847 65,49 C65,48.4477153 64.5522847,48 64,48 C63.4477153,48 63,48.4477153 63,49 C63,49.5522847 63.4477153,50 64,50 Z M74,50 C74.5522847,50 75,49.5522847 75,49 C75,48.4477153 74.5522847,48 74,48 C73.4477153,48 73,48.4477153 73,49 C73,49.5522847 73.4477153,50 74,50 Z M84,50 C84.5522847,50 85,49.5522847 85,49 C85,48.4477153 84.5522847,48 84,48 C83.4477153,48 83,48.4477153 83,49 C83,49.5522847 83.4477153,50 84,50 Z M94,50 C94.5522847,50 95,49.5522847 95,49 C95,48.4477153 94.5522847,48 94,48 C93.4477153,48 93,48.4477153 93,49 C93,49.5522847 93.4477153,50 94,50 Z M104,50 C104.552285,50 105,49.5522847 105,49 C105,48.4477153 104.552285,48 104,48 C103.447715,48 103,48.4477153 103,49 C103,49.5522847 103.447715,50 104,50 Z M114,50 C114.552285,50 115,49.5522847 115,49 C115,48.4477153 114.552285,48 114,48 C113.447715,48 113,48.4477153 113,49 C113,49.5522847 113.447715,50 114,50 Z M124,50 C124.552285,50 125,49.5522847 125,49 C125,48.4477153 124.552285,48 124,48 C123.447715,48 123,48.4477153 123,49 C123,49.5522847 123.447715,50 124,50 Z M134,50 C134.552285,50 135,49.5522847 135,49 C135,48.4477153 134.552285,48 134,48 C133.447715,48 133,48.4477153 133,49 C133,49.5522847 133.447715,50 134,50 Z M144,50 C144.552285,50 145,49.5522847 145,49 C145,48.4477153 144.552285,48 144,48 C143.447715,48 143,48.4477153 143,49 C143,49.5522847 143.447715,50 144,50 Z M154,50 C154.552285,50 155,49.5522847 155,49 C155,48.4477153 154.552285,48 154,48 C153.447715,48 153,48.4477153 153,49 C153,49.5522847 153.447715,50 154,50 Z" id="Oval-7-Copy-21" fill="#8A8A8A"></path>
                    <path d="M140.172365,6.90154306 L131.649448,3.11358021 L128.102724,7.54698522 L128.182191,7.6860521 L127.830864,7.88681031 L127.578087,8.20278193 L127.453015,8.10272425 L120.893563,11.8509826 L120.762613,12.1565322 L120.531892,12.0576517 L120.313948,12.182191 L120.149017,11.8935627 L113.736374,9.14528677 L113.723607,9.17082039 L113.289535,8.95378459 L112.843468,8.76261287 L112.854713,8.73637361 L109.658534,7.13828424 L105,13.6602325 L105,14 L104.757309,14 L104.616248,14.1974858 L104.339767,14 L99.8603796,14 L98,19.5811388 L98,20 L97.8603796,20 L97.8162278,20.1324555 L97.4188612,20 L92.681025,20 L92.4359816,20.2042028 L92.2658125,20 L92,20 L92,19.681025 L87.5915366,14.3908689 L71.9540659,43.7111264 L71.778543,44.1499337 L71.7303224,44.1306455 L71.7058824,44.1764706 L71.2888736,43.9540659 L66.6430979,42.0957556 L59.9379146,49.7588223 L59.7990252,50.1407682 L59.6508565,50.0868887 L59.547036,50.2055407 L59.2411777,49.9379146 L48.531246,46.043394 L40.7236068,49.9472136 L40.5,50.059017 L40.2763932,50.1708204 L40.0527864,49.7236068 L33.190983,36 L28.8603796,36 L28.8162278,36.1324555 L28.4188612,36 L28,36 L28,35.8603796 L22.7307533,34.103964 L18.9410071,40.7360198 L18.7236068,41.1708204 L18.6994512,41.1587426 L18.6860521,41.182191 L18.2639802,40.9410071 L14.6994512,39.1587426 L11.0284374,45.5830167 L11.0922801,45.8862697 L10.822722,45.9430187 L10.6860521,46.182191 L10.4169833,46.0284374 L10.1137303,46.0922801 L10.0569813,45.822722 L9.81780896,45.6860521 L9.97156258,45.4169833 L6.54031223,29.1185441 L1.99221379,54.5878953 L1.90431847,55.0801091 L0.919890893,54.9043185 L1.00778621,54.4121047 L5.99069048,26.5078408 L5.90771987,26.1137303 L6.06705748,26.0801856 L6.09568153,25.9198909 L6.49215923,25.9906905 L6.88626965,25.9077199 L6.91981441,26.0670575 L7.08010911,26.0956815 L7.00930952,26.4921592 L10.7183506,44.1101043 L14.0589929,38.2639802 L14.2763932,37.8291796 L14.3005488,37.8412574 L14.3139479,37.817809 L14.7360198,38.0589929 L18.3005488,39.8412574 L22.0413147,33.294917 L22.1837722,32.8675445 L22.2692467,32.896036 L22.3139479,32.817809 L22.705083,33.0413147 L28.5811388,35 L33.381966,35 L33.7236068,34.8291796 L33.809017,35 L34,35 L34,35.381966 L40.7236068,48.8291796 L48.0981909,45.1418876 L48.2009748,44.8592318 L48.468754,44.956606 L48.7236068,44.8291796 L48.8581124,45.0981909 L59.3491435,48.9131113 L66.0674773,41.2350155 L66.221457,40.8500663 L66.3569021,40.9042444 L66.452964,40.7944593 L66.7649845,41.0674773 L71.2696776,42.8693545 L86.9004797,13.5616006 L86.7957972,13.4359816 L87.10482,13.1784625 L87.2941176,12.8235294 L87.4383994,12.9004797 L87.5640184,12.7957972 L87.8215375,13.10482 L88.1764706,13.2941176 L88.0995203,13.4383994 L92.7341875,19 L97.1396204,19 L99,13.4188612 L99,13 L99.1396204,13 L99.1837722,12.8675445 L99.5811388,13 L104.242691,13 L109.070331,6.24130422 L109.276393,5.82917961 L109.341466,5.86171576 L109.383752,5.80251417 L109.758696,6.0703309 L113.710465,8.04621541 L120.468108,10.9423483 L127.169136,7.11318969 L131.069283,2.23800534 L131.246163,1.84002499 L131.350552,1.88641979 L131.421913,1.79721807 L131.761995,2.0692833 L140.441925,5.9270302 L147.209381,1.09313326 L147.616248,0.802514168 L148.197486,1.61624764 L147.790619,1.90686674 L140.901543,6.82763533 L140.753837,7.15997501 L140.558075,7.0729698 L140.383752,7.19748583 L140.172365,6.90154306 Z" id="TSLA" stroke="#21CE99" stroke-linecap="square" fill="#21CE99"></path>
                </g>
            </g>
        </g>
    </g>
</svg>