<?xml version="1.0" encoding="UTF-8" standalone="no"?>
<svg width="753px" height="333px" viewBox="0 0 753 333" version="1.1" xmlns="http://www.w3.org/2000/svg" xmlns:xlink="http://www.w3.org/1999/xlink">
    <!-- Generator: Sketch 3.6.1 (26313) - http://www.bohemiancoding.com/sketch -->
    <title>Group</title>
    <desc>Created with Sketch.</desc>
    <defs></defs>
    <g id="Page-1" stroke="none" stroke-width="1" fill="none" fill-rule="evenodd">
        <g id="graph-red-lrg">
            <g id="Page-1">
                <g id="graph-green-lrg">
                    <g id="Page-1">
                        <g id="iPad-Portrait">
                            <g id="Group" transform="translate(376.500000, 166.500000) scale(1, -1) translate(-376.500000, -166.500000) ">
                                <path d="M12.3287035,257.379576 C13.1571307,257.379576 13.8287035,256.708003 13.8287035,255.879576 C13.8287035,255.051149 13.1571307,254.379576 12.3287035,254.379576 C11.5002764,254.379576 10.8287035,255.051149 10.8287035,255.879576 C10.8287035,256.708003 11.5002764,257.379576 12.3287035,257.379576 L12.3287035,257.379576 L12.3287035,257.379576 Z M22.3287035,257.379576 C23.1571307,257.379576 23.8287035,256.708003 23.8287035,255.879576 C23.8287035,255.051149 23.1571307,254.379576 22.3287035,254.379576 C21.5002764,254.379576 20.8287035,255.051149 20.8287035,255.879576 C20.8287035,256.708003 21.5002764,257.379576 22.3287035,257.379576 L22.3287035,257.379576 L22.3287035,257.379576 Z M32.3287035,257.379576 C33.1571307,257.379576 33.8287035,256.708003 33.8287035,255.879576 C33.8287035,255.051149 33.1571307,254.379576 32.3287035,254.379576 C31.5002764,254.379576 30.8287035,255.051149 30.8287035,255.879576 C30.8287035,256.708003 31.5002764,257.379576 32.3287035,257.379576 L32.3287035,257.379576 L32.3287035,257.379576 Z M42.3287035,257.379576 C43.1571307,257.379576 43.8287035,256.708003 43.8287035,255.879576 C43.8287035,255.051149 43.1571307,254.379576 42.3287035,254.379576 C41.5002764,254.379576 40.8287035,255.051149 40.8287035,255.879576 C40.8287035,256.708003 41.5002764,257.379576 42.3287035,257.379576 L42.3287035,257.379576 L42.3287035,257.379576 Z M52.3287035,257.379576 C53.1571307,257.379576 53.8287035,256.708003 53.8287035,255.879576 C53.8287035,255.051149 53.1571307,254.379576 52.3287035,254.379576 C51.5002764,254.379576 50.8287035,255.051149 50.8287035,255.879576 C50.8287035,256.708003 51.5002764,257.379576 52.3287035,257.379576 L52.3287035,257.379576 L52.3287035,257.379576 Z M62.3287035,257.379576 C63.1571307,257.379576 63.8287035,256.708003 63.8287035,255.879576 C63.8287035,255.051149 63.1571307,254.379576 62.3287035,254.379576 C61.5002764,254.379576 60.8287035,255.051149 60.8287035,255.879576 C60.8287035,256.708003 61.5002764,257.379576 62.3287035,257.379576 L62.3287035,257.379576 L62.3287035,257.379576 Z M72.3287035,257.379576 C73.1571307,257.379576 73.8287035,256.708003 73.8287035,255.879576 C73.8287035,255.051149 73.1571307,254.379576 72.3287035,254.379576 C71.5002764,254.379576 70.8287035,255.051149 70.8287035,255.879576 C70.8287035,256.708003 71.5002764,257.379576 72.3287035,257.379576 L72.3287035,257.379576 L72.3287035,257.379576 Z M82.3287035,257.379576 C83.1571307,257.379576 83.8287035,256.708003 83.8287035,255.879576 C83.8287035,255.051149 83.1571307,254.379576 82.3287035,254.379576 C81.5002764,254.379576 80.8287035,255.051149 80.8287035,255.879576 C80.8287035,256.708003 81.5002764,257.379576 82.3287035,257.379576 L82.3287035,257.379576 L82.3287035,257.379576 Z M92.3287035,257.379576 C93.1571307,257.379576 93.8287035,256.708003 93.8287035,255.879576 C93.8287035,255.051149 93.1571307,254.379576 92.3287035,254.379576 C91.5002764,254.379576 90.8287035,255.051149 90.8287035,255.879576 C90.8287035,256.708003 91.5002764,257.379576 92.3287035,257.379576 L92.3287035,257.379576 L92.3287035,257.379576 Z M102.328704,257.379576 C103.157131,257.379576 103.828704,256.708003 103.828704,255.879576 C103.828704,255.051149 103.157131,254.379576 102.328704,254.379576 C101.500276,254.379576 100.828704,255.051149 100.828704,255.879576 C100.828704,256.708003 101.500276,257.379576 102.328704,257.379576 L102.328704,257.379576 L102.328704,257.379576 Z M112.328704,257.379576 C113.157131,257.379576 113.828704,256.708003 113.828704,255.879576 C113.828704,255.051149 113.157131,254.379576 112.328704,254.379576 C111.500276,254.379576 110.828704,255.051149 110.828704,255.879576 C110.828704,256.708003 111.500276,257.379576 112.328704,257.379576 L112.328704,257.379576 L112.328704,257.379576 Z M122.328704,257.379576 C123.157131,257.379576 123.828704,256.708003 123.828704,255.879576 C123.828704,255.051149 123.157131,254.379576 122.328704,254.379576 C121.500276,254.379576 120.828704,255.051149 120.828704,255.879576 C120.828704,256.708003 121.500276,257.379576 122.328704,257.379576 L122.328704,257.379576 L122.328704,257.379576 Z M132.328704,257.379576 C133.157131,257.379576 133.828704,256.708003 133.828704,255.879576 C133.828704,255.051149 133.157131,254.379576 132.328704,254.379576 C131.500276,254.379576 130.828704,255.051149 130.828704,255.879576 C130.828704,256.708003 131.500276,257.379576 132.328704,257.379576 L132.328704,257.379576 L132.328704,257.379576 Z M142.328704,257.379576 C143.157131,257.379576 143.828704,256.708003 143.828704,255.879576 C143.828704,255.051149 143.157131,254.379576 142.328704,254.379576 C141.500276,254.379576 140.828704,255.051149 140.828704,255.879576 C140.828704,256.708003 141.500276,257.379576 142.328704,257.379576 L142.328704,257.379576 L142.328704,257.379576 Z M152.328704,257.379576 C153.157131,257.379576 153.828704,256.708003 153.828704,255.879576 C153.828704,255.051149 153.157131,254.379576 152.328704,254.379576 C151.500276,254.379576 150.828704,255.051149 150.828704,255.879576 C150.828704,256.708003 151.500276,257.379576 152.328704,257.379576 L152.328704,257.379576 L152.328704,257.379576 Z M162.328704,257.379576 C163.157131,257.379576 163.828704,256.708003 163.828704,255.879576 C163.828704,255.051149 163.157131,254.379576 162.328704,254.379576 C161.500276,254.379576 160.828704,255.051149 160.828704,255.879576 C160.828704,256.708003 161.500276,257.379576 162.328704,257.379576 L162.328704,257.379576 L162.328704,257.379576 Z M172.328704,257.379576 C173.157131,257.379576 173.828704,256.708003 173.828704,255.879576 C173.828704,255.051149 173.157131,254.379576 172.328704,254.379576 C171.500276,254.379576 170.828704,255.051149 170.828704,255.879576 C170.828704,256.708003 171.500276,257.379576 172.328704,257.379576 L172.328704,257.379576 L172.328704,257.379576 Z M182.328704,257.379576 C183.157131,257.379576 183.828704,256.708003 183.828704,255.879576 C183.828704,255.051149 183.157131,254.379576 182.328704,254.379576 C181.500276,254.379576 180.828704,255.051149 180.828704,255.879576 C180.828704,256.708003 181.500276,257.379576 182.328704,257.379576 L182.328704,257.379576 L182.328704,257.379576 Z M192.328704,257.379576 C193.157131,257.379576 193.828704,256.708003 193.828704,255.879576 C193.828704,255.051149 193.157131,254.379576 192.328704,254.379576 C191.500276,254.379576 190.828704,255.051149 190.828704,255.879576 C190.828704,256.708003 191.500276,257.379576 192.328704,257.379576 L192.328704,257.379576 L192.328704,257.379576 Z M202.328704,257.379576 C203.157131,257.379576 203.828704,256.708003 203.828704,255.879576 C203.828704,255.051149 203.157131,254.379576 202.328704,254.379576 C201.500276,254.379576 200.828704,255.051149 200.828704,255.879576 C200.828704,256.708003 201.500276,257.379576 202.328704,257.379576 L202.328704,257.379576 L202.328704,257.379576 Z M212.328704,257.379576 C213.157131,257.379576 213.828704,256.708003 213.828704,255.879576 C213.828704,255.051149 213.157131,254.379576 212.328704,254.379576 C211.500276,254.379576 210.828704,255.051149 210.828704,255.879576 C210.828704,256.708003 211.500276,257.379576 212.328704,257.379576 L212.328704,257.379576 L212.328704,257.379576 Z M222.328704,257.379576 C223.157131,257.379576 223.828704,256.708003 223.828704,255.879576 C223.828704,255.051149 223.157131,254.379576 222.328704,254.379576 C221.500276,254.379576 220.828704,255.051149 220.828704,255.879576 C220.828704,256.708003 221.500276,257.379576 222.328704,257.379576 L222.328704,257.379576 L222.328704,257.379576 Z M232.328704,257.379576 C233.157131,257.379576 233.828704,256.708003 233.828704,255.879576 C233.828704,255.051149 233.157131,254.379576 232.328704,254.379576 C231.500276,254.379576 230.828704,255.051149 230.828704,255.879576 C230.828704,256.708003 231.500276,257.379576 232.328704,257.379576 L232.328704,257.379576 L232.328704,257.379576 Z M242.328704,257.379576 C243.157131,257.379576 243.828704,256.708003 243.828704,255.879576 C243.828704,255.051149 243.157131,254.379576 242.328704,254.379576 C241.500276,254.379576 240.828704,255.051149 240.828704,255.879576 C240.828704,256.708003 241.500276,257.379576 242.328704,257.379576 L242.328704,257.379576 L242.328704,257.379576 Z M252.328704,257.379576 C253.157131,257.379576 253.828704,256.708003 253.828704,255.879576 C253.828704,255.051149 253.157131,254.379576 252.328704,254.379576 C251.500276,254.379576 250.828704,255.051149 250.828704,255.879576 C250.828704,256.708003 251.500276,257.379576 252.328704,257.379576 L252.328704,257.379576 L252.328704,257.379576 Z M262.328704,257.379576 C263.157131,257.379576 263.828704,256.708003 263.828704,255.879576 C263.828704,255.051149 263.157131,254.379576 262.328704,254.379576 C261.500276,254.379576 260.828704,255.051149 260.828704,255.879576 C260.828704,256.708003 261.500276,257.379576 262.328704,257.379576 L262.328704,257.379576 L262.328704,257.379576 Z M272.328704,257.379576 C273.157131,257.379576 273.828704,256.708003 273.828704,255.879576 C273.828704,255.051149 273.157131,254.379576 272.328704,254.379576 C271.500276,254.379576 270.828704,255.051149 270.828704,255.879576 C270.828704,256.708003 271.500276,257.379576 272.328704,257.379576 L272.328704,257.379576 L272.328704,257.379576 Z M282.328704,257.379576 C283.157131,257.379576 283.828704,256.708003 283.828704,255.879576 C283.828704,255.051149 283.157131,254.379576 282.328704,254.379576 C281.500276,254.379576 280.828704,255.051149 280.828704,255.879576 C280.828704,256.708003 281.500276,257.379576 282.328704,257.379576 L282.328704,257.379576 L282.328704,257.379576 Z M292.328704,257.379576 C293.157131,257.379576 293.828704,256.708003 293.828704,255.879576 C293.828704,255.051149 293.157131,254.379576 292.328704,254.379576 C291.500276,254.379576 290.828704,255.051149 290.828704,255.879576 C290.828704,256.708003 291.500276,257.379576 292.328704,257.379576 L292.328704,257.379576 L292.328704,257.379576 Z M301.328704,257.379576 C302.157131,257.379576 302.828704,256.708003 302.828704,255.879576 C302.828704,255.051149 302.157131,254.379576 301.328704,254.379576 C300.500276,254.379576 299.828704,255.051149 299.828704,255.879576 C299.828704,256.708003 300.500276,257.379576 301.328704,257.379576 L301.328704,257.379576 L301.328704,257.379576 Z M311.328704,257.379576 C312.157131,257.379576 312.828704,256.708003 312.828704,255.879576 C312.828704,255.051149 312.157131,254.379576 311.328704,254.379576 C310.500276,254.379576 309.828704,255.051149 309.828704,255.879576 C309.828704,256.708003 310.500276,257.379576 311.328704,257.379576 L311.328704,257.379576 L311.328704,257.379576 Z M321.328704,257.379576 C322.157131,257.379576 322.828704,256.708003 322.828704,255.879576 C322.828704,255.051149 322.157131,254.379576 321.328704,254.379576 C320.500276,254.379576 319.828704,255.051149 319.828704,255.879576 C319.828704,256.708003 320.500276,257.379576 321.328704,257.379576 L321.328704,257.379576 L321.328704,257.379576 Z M331.328704,257.379576 C332.157131,257.379576 332.828704,256.708003 332.828704,255.879576 C332.828704,255.051149 332.157131,254.379576 331.328704,254.379576 C330.500276,254.379576 329.828704,255.051149 329.828704,255.879576 C329.828704,256.708003 330.500276,257.379576 331.328704,257.379576 L331.328704,257.379576 L331.328704,257.379576 Z M341.328704,257.379576 C342.157131,257.379576 342.828704,256.708003 342.828704,255.879576 C342.828704,255.051149 342.157131,254.379576 341.328704,254.379576 C340.500276,254.379576 339.828704,255.051149 339.828704,255.879576 C339.828704,256.708003 340.500276,257.379576 341.328704,257.379576 L341.328704,257.379576 L341.328704,257.379576 Z M351.328704,257.379576 C352.157131,257.379576 352.828704,256.708003 352.828704,255.879576 C352.828704,255.051149 352.157131,254.379576 351.328704,254.379576 C350.500276,254.379576 349.828704,255.051149 349.828704,255.879576 C349.828704,256.708003 350.500276,257.379576 351.328704,257.379576 L351.328704,257.379576 L351.328704,257.379576 Z M361.328704,257.379576 C362.157131,257.379576 362.828704,256.708003 362.828704,255.879576 C362.828704,255.051149 362.157131,254.379576 361.328704,254.379576 C360.500276,254.379576 359.828704,255.051149 359.828704,255.879576 C359.828704,256.708003 360.500276,257.379576 361.328704,257.379576 L361.328704,257.379576 L361.328704,257.379576 Z M371.328704,257.379576 C372.157131,257.379576 372.828704,256.708003 372.828704,255.879576 C372.828704,255.051149 372.157131,254.379576 371.328704,254.379576 C370.500276,254.379576 369.828704,255.051149 369.828704,255.879576 C369.828704,256.708003 370.500276,257.379576 371.328704,257.379576 L371.328704,257.379576 L371.328704,257.379576 Z M381.328704,257.379576 C382.157131,257.379576 382.828704,256.708003 382.828704,255.879576 C382.828704,255.051149 382.157131,254.379576 381.328704,254.379576 C380.500276,254.379576 379.828704,255.051149 379.828704,255.879576 C379.828704,256.708003 380.500276,257.379576 381.328704,257.379576 L381.328704,257.379576 L381.328704,257.379576 Z M391.328704,257.379576 C392.157131,257.379576 392.828704,256.708003 392.828704,255.879576 C392.828704,255.051149 392.157131,254.379576 391.328704,254.379576 C390.500276,254.379576 389.828704,255.051149 389.828704,255.879576 C389.828704,256.708003 390.500276,257.379576 391.328704,257.379576 L391.328704,257.379576 L391.328704,257.379576 Z M401.328704,257.379576 C402.157131,257.379576 402.828704,256.708003 402.828704,255.879576 C402.828704,255.051149 402.157131,254.379576 401.328704,254.379576 C400.500276,254.379576 399.828704,255.051149 399.828704,255.879576 C399.828704,256.708003 400.500276,257.379576 401.328704,257.379576 L401.328704,257.379576 L401.328704,257.379576 Z M411.328704,257.379576 C412.157131,257.379576 412.828704,256.708003 412.828704,255.879576 C412.828704,255.051149 412.157131,254.379576 411.328704,254.379576 C410.500276,254.379576 409.828704,255.051149 409.828704,255.879576 C409.828704,256.708003 410.500276,257.379576 411.328704,257.379576 L411.328704,257.379576 L411.328704,257.379576 Z M421.328704,257.379576 C422.157131,257.379576 422.828704,256.708003 422.828704,255.879576 C422.828704,255.051149 422.157131,254.379576 421.328704,254.379576 C420.500276,254.379576 419.828704,255.051149 419.828704,255.879576 C419.828704,256.708003 420.500276,257.379576 421.328704,257.379576 L421.328704,257.379576 L421.328704,257.379576 Z M431.328704,257.379576 C432.157131,257.379576 432.828704,256.708003 432.828704,255.879576 C432.828704,255.051149 432.157131,254.379576 431.328704,254.379576 C430.500276,254.379576 429.828704,255.051149 429.828704,255.879576 C429.828704,256.708003 430.500276,257.379576 431.328704,257.379576 L431.328704,257.379576 L431.328704,257.379576 Z M441.328704,257.379576 C442.157131,257.379576 442.828704,256.708003 442.828704,255.879576 C442.828704,255.051149 442.157131,254.379576 441.328704,254.379576 C440.500276,254.379576 439.828704,255.051149 439.828704,255.879576 C439.828704,256.708003 440.500276,257.379576 441.328704,257.379576 L441.328704,257.379576 L441.328704,257.379576 Z M451.328704,257.379576 C452.157131,257.379576 452.828704,256.708003 452.828704,255.879576 C452.828704,255.051149 452.157131,254.379576 451.328704,254.379576 C450.500276,254.379576 449.828704,255.051149 449.828704,255.879576 C449.828704,256.708003 450.500276,257.379576 451.328704,257.379576 L451.328704,257.379576 L451.328704,257.379576 Z M461.328704,257.379576 C462.157131,257.379576 462.828704,256.708003 462.828704,255.879576 C462.828704,255.051149 462.157131,254.379576 461.328704,254.379576 C460.500276,254.379576 459.828704,255.051149 459.828704,255.879576 C459.828704,256.708003 460.500276,257.379576 461.328704,257.379576 L461.328704,257.379576 L461.328704,257.379576 Z M471.328704,257.379576 C472.157131,257.379576 472.828704,256.708003 472.828704,255.879576 C472.828704,255.051149 472.157131,254.379576 471.328704,254.379576 C470.500276,254.379576 469.828704,255.051149 469.828704,255.879576 C469.828704,256.708003 470.500276,257.379576 471.328704,257.379576 L471.328704,257.379576 L471.328704,257.379576 Z M481.328704,257.379576 C482.157131,257.379576 482.828704,256.708003 482.828704,255.879576 C482.828704,255.051149 482.157131,254.379576 481.328704,254.379576 C480.500276,254.379576 479.828704,255.051149 479.828704,255.879576 C479.828704,256.708003 480.500276,257.379576 481.328704,257.379576 L481.328704,257.379576 L481.328704,257.379576 Z M490.328704,257.379576 C491.157131,257.379576 491.828704,256.708003 491.828704,255.879576 C491.828704,255.051149 491.157131,254.379576 490.328704,254.379576 C489.500276,254.379576 488.828704,255.051149 488.828704,255.879576 C488.828704,256.708003 489.500276,257.379576 490.328704,257.379576 L490.328704,257.379576 L490.328704,257.379576 Z M501.328704,257.379576 C502.157131,257.379576 502.828704,256.708003 502.828704,255.879576 C502.828704,255.051149 502.157131,254.379576 501.328704,254.379576 C500.500276,254.379576 499.828704,255.051149 499.828704,255.879576 C499.828704,256.708003 500.500276,257.379576 501.328704,257.379576 L501.328704,257.379576 L501.328704,257.379576 Z M511.328704,257.379576 C512.157131,257.379576 512.828704,256.708003 512.828704,255.879576 C512.828704,255.051149 512.157131,254.379576 511.328704,254.379576 C510.500276,254.379576 509.828704,255.051149 509.828704,255.879576 C509.828704,256.708003 510.500276,257.379576 511.328704,257.379576 L511.328704,257.379576 L511.328704,257.379576 Z M521.328704,257.379576 C522.157131,257.379576 522.828704,256.708003 522.828704,255.879576 C522.828704,255.051149 522.157131,254.379576 521.328704,254.379576 C520.500276,254.379576 519.828704,255.051149 519.828704,255.879576 C519.828704,256.708003 520.500276,257.379576 521.328704,257.379576 L521.328704,257.379576 L521.328704,257.379576 Z M531.328704,257.379576 C532.157131,257.379576 532.828704,256.708003 532.828704,255.879576 C532.828704,255.051149 532.157131,254.379576 531.328704,254.379576 C530.500276,254.379576 529.828704,255.051149 529.828704,255.879576 C529.828704,256.708003 530.500276,257.379576 531.328704,257.379576 L531.328704,257.379576 L531.328704,257.379576 Z M541.328704,257.379576 C542.157131,257.379576 542.828704,256.708003 542.828704,255.879576 C542.828704,255.051149 542.157131,254.379576 541.328704,254.379576 C540.500276,254.379576 539.828704,255.051149 539.828704,255.879576 C539.828704,256.708003 540.500276,257.379576 541.328704,257.379576 L541.328704,257.379576 L541.328704,257.379576 Z M550.328704,257.379576 C551.157131,257.379576 551.828704,256.708003 551.828704,255.879576 C551.828704,255.051149 551.157131,254.379576 550.328704,254.379576 C549.500276,254.379576 548.828704,255.051149 548.828704,255.879576 C548.828704,256.708003 549.500276,257.379576 550.328704,257.379576 L550.328704,257.379576 L550.328704,257.379576 Z M560.328704,257.379576 C561.157131,257.379576 561.828704,256.708003 561.828704,255.879576 C561.828704,255.051149 561.157131,254.379576 560.328704,254.379576 C559.500276,254.379576 558.828704,255.051149 558.828704,255.879576 C558.828704,256.708003 559.500276,257.379576 560.328704,257.379576 L560.328704,257.379576 L560.328704,257.379576 Z M570.328704,257.379576 C571.157131,257.379576 571.828704,256.708003 571.828704,255.879576 C571.828704,255.051149 571.157131,254.379576 570.328704,254.379576 C569.500276,254.379576 568.828704,255.051149 568.828704,255.879576 C568.828704,256.708003 569.500276,257.379576 570.328704,257.379576 L570.328704,257.379576 L570.328704,257.379576 Z M580.328704,257.379576 C581.157131,257.379576 581.828704,256.708003 581.828704,255.879576 C581.828704,255.051149 581.157131,254.379576 580.328704,254.379576 C579.500276,254.379576 578.828704,255.051149 578.828704,255.879576 C578.828704,256.708003 579.500276,257.379576 580.328704,257.379576 L580.328704,257.379576 L580.328704,257.379576 Z M590.328704,257.379576 C591.157131,257.379576 591.828704,256.708003 591.828704,255.879576 C591.828704,255.051149 591.157131,254.379576 590.328704,254.379576 C589.500276,254.379576 588.828704,255.051149 588.828704,255.879576 C588.828704,256.708003 589.500276,257.379576 590.328704,257.379576 L590.328704,257.379576 L590.328704,257.379576 Z M600.328704,257.379576 C601.157131,257.379576 601.828704,256.708003 601.828704,255.879576 C601.828704,255.051149 601.157131,254.379576 600.328704,254.379576 C599.500276,254.379576 598.828704,255.051149 598.828704,255.879576 C598.828704,256.708003 599.500276,257.379576 600.328704,257.379576 L600.328704,257.379576 L600.328704,257.379576 Z M610.328704,257.379576 C611.157131,257.379576 611.828704,256.708003 611.828704,255.879576 C611.828704,255.051149 611.157131,254.379576 610.328704,254.379576 C609.500276,254.379576 608.828704,255.051149 608.828704,255.879576 C608.828704,256.708003 609.500276,257.379576 610.328704,257.379576 L610.328704,257.379576 L610.328704,257.379576 Z M620.328704,257.379576 C621.157131,257.379576 621.828704,256.708003 621.828704,255.879576 C621.828704,255.051149 621.157131,254.379576 620.328704,254.379576 C619.500276,254.379576 618.828704,255.051149 618.828704,255.879576 C618.828704,256.708003 619.500276,257.379576 620.328704,257.379576 L620.328704,257.379576 L620.328704,257.379576 Z M630.328704,257.379576 C631.157131,257.379576 631.828704,256.708003 631.828704,255.879576 C631.828704,255.051149 631.157131,254.379576 630.328704,254.379576 C629.500276,254.379576 628.828704,255.051149 628.828704,255.879576 C628.828704,256.708003 629.500276,257.379576 630.328704,257.379576 L630.328704,257.379576 L630.328704,257.379576 Z M640.328704,257.379576 C641.157131,257.379576 641.828704,256.708003 641.828704,255.879576 C641.828704,255.051149 641.157131,254.379576 640.328704,254.379576 C639.500276,254.379576 638.828704,255.051149 638.828704,255.879576 C638.828704,256.708003 639.500276,257.379576 640.328704,257.379576 L640.328704,257.379576 L640.328704,257.379576 Z M650.328704,257.379576 C651.157131,257.379576 651.828704,256.708003 651.828704,255.879576 C651.828704,255.051149 651.157131,254.379576 650.328704,254.379576 C649.500276,254.379576 648.828704,255.051149 648.828704,255.879576 C648.828704,256.708003 649.500276,257.379576 650.328704,257.379576 L650.328704,257.379576 L650.328704,257.379576 Z M660.328704,257.379576 C661.157131,257.379576 661.828704,256.708003 661.828704,255.879576 C661.828704,255.051149 661.157131,254.379576 660.328704,254.379576 C659.500276,254.379576 658.828704,255.051149 658.828704,255.879576 C658.828704,256.708003 659.500276,257.379576 660.328704,257.379576 L660.328704,257.379576 L660.328704,257.379576 Z M670.328704,257.379576 C671.157131,257.379576 671.828704,256.708003 671.828704,255.879576 C671.828704,255.051149 671.157131,254.379576 670.328704,254.379576 C669.500276,254.379576 668.828704,255.051149 668.828704,255.879576 C668.828704,256.708003 669.500276,257.379576 670.328704,257.379576 L670.328704,257.379576 L670.328704,257.379576 Z M681.328704,257.379576 C682.157131,257.379576 682.828704,256.708003 682.828704,255.879576 C682.828704,255.051149 682.157131,254.379576 681.328704,254.379576 C680.500276,254.379576 679.828704,255.051149 679.828704,255.879576 C679.828704,256.708003 680.500276,257.379576 681.328704,257.379576 L681.328704,257.379576 L681.328704,257.379576 Z M691.328704,257.379576 C692.157131,257.379576 692.828704,256.708003 692.828704,255.879576 C692.828704,255.051149 692.157131,254.379576 691.328704,254.379576 C690.500276,254.379576 689.828704,255.051149 689.828704,255.879576 C689.828704,256.708003 690.500276,257.379576 691.328704,257.379576 L691.328704,257.379576 L691.328704,257.379576 Z M701.328704,257.379576 C702.157131,257.379576 702.828704,256.708003 702.828704,255.879576 C702.828704,255.051149 702.157131,254.379576 701.328704,254.379576 C700.500276,254.379576 699.828704,255.051149 699.828704,255.879576 C699.828704,256.708003 700.500276,257.379576 701.328704,257.379576 L701.328704,257.379576 L701.328704,257.379576 Z M711.328704,257.379576 C712.157131,257.379576 712.828704,256.708003 712.828704,255.879576 C712.828704,255.051149 712.157131,254.379576 711.328704,254.379576 C710.500276,254.379576 709.828704,255.051149 709.828704,255.879576 C709.828704,256.708003 710.500276,257.379576 711.328704,257.379576 L711.328704,257.379576 L711.328704,257.379576 Z M721.328704,257.379576 C722.157131,257.379576 722.828704,256.708003 722.828704,255.879576 C722.828704,255.051149 722.157131,254.379576 721.328704,254.379576 C720.500276,254.379576 719.828704,255.051149 719.828704,255.879576 C719.828704,256.708003 720.500276,257.379576 721.328704,257.379576 L721.328704,257.379576 L721.328704,257.379576 Z M731.328704,257.379576 C732.157131,257.379576 732.828704,256.708003 732.828704,255.879576 C732.828704,255.051149 732.157131,254.379576 731.328704,254.379576 C730.500276,254.379576 729.828704,255.051149 729.828704,255.879576 C729.828704,256.708003 730.500276,257.379576 731.328704,257.379576 L731.328704,257.379576 L731.328704,257.379576 Z M741.328704,257.379576 C742.157131,257.379576 742.828704,256.708003 742.828704,255.879576 C742.828704,255.051149 742.157131,254.379576 741.328704,254.379576 C740.500276,254.379576 739.828704,255.051149 739.828704,255.879576 C739.828704,256.708003 740.500276,257.379576 741.328704,257.379576 L741.328704,257.379576 L741.328704,257.379576 Z M751.328704,257.379576 C752.157131,257.379576 752.828704,256.708003 752.828704,255.879576 C752.828704,255.051149 752.157131,254.379576 751.328704,254.379576 C750.500276,254.379576 749.828704,255.051149 749.828704,255.879576 C749.828704,256.708003 750.500276,257.379576 751.328704,257.379576 L751.328704,257.379576 L751.328704,257.379576 Z M2.19109278,257.076618 C3.0195199,257.076618 3.69109278,256.405045 3.69109278,255.576618 C3.69109278,254.748191 3.0195199,254.076618 2.19109278,254.076618 C1.36266565,254.076618 0.691092778,254.748191 0.691092778,255.576618 C0.691092778,256.405045 1.36266565,257.076618 2.19109278,257.076618 L2.19109278,257.076618 L2.19109278,257.076618 Z" id="Oval-233-Copy" fill="#222428"></path>
                                <path d="M710.16263,86.0154987 L668.888322,87.9809419 L668.867658,87.8959904 L668.428369,88.0028444 L667.976783,88.0243485 L667.980942,88.1116781 L631.440063,97 L591.918246,97 L591.903804,96.9195324 L591.455484,97 L591,97 L591,97.0817535 L552.67079,103.961355 L474.00529,24.3000901 L474.012652,24.0129806 L473.714213,24.0053283 L473.504447,23.7929072 L473.30009,23.9947098 L395.632041,22.0032213 L357.06386,1.23573903 L357.089494,1.1094914 L356.671951,1.02471107 L356.296814,0.822714539 L356.235739,0.936140159 L356.109491,0.910506123 L356.024711,1.32804921 L355.822715,1.70318564 L355.93614,1.76426097 L316.038613,198.259584 L277.295838,238.989167 L237.746942,237.011722 L237.571369,236.796504 L237.332928,236.991022 L237.025593,236.975655 L237.011722,237.253058 L199.55757,267.807762 L199.54582,267.794379 L199.176912,268.118298 L198.796504,268.428631 L198.807762,268.44243 L158.222492,304.078276 L118.339003,323.022934 L80.5648118,330.975395 L41.9446271,312.160433 L41.8983393,311.915769 L41.5699475,311.977897 L41.2694898,311.83152 L41.1604334,312.055373 L4.40705417,319.008715 L3.91576904,319.101661 L4.10166071,320.084231 L4.59294583,319.991285 L41.4300525,313.022103 L80.0611166,331.842365 L80.1137303,332.09228 L80.4351882,332.024605 L80.7305102,332.16848 L80.8423648,331.938883 L118.217424,324.07045 L118.26289,324.166167 L118.660997,323.977066 L119.09228,323.88627 L119.07045,323.782576 L158.373433,305.113659 L158.45418,305.205621 L158.777508,304.921724 L159.166167,304.73711 L159.113659,304.626567 L199.823088,268.881702 L237.667072,238.008978 L277.289783,239.990114 L277.517672,240.206886 L277.704162,240.010833 L277.974407,240.024345 L277.990114,239.710217 L316.671615,199.045048 L316.890509,199.089494 L316.961387,198.740416 L317.206886,198.482328 L317.045048,198.328385 L356.855978,2.25955816 L394.992285,22.7944926 L394.987348,22.9870194 L395.367959,22.9967787 L395.703186,23.1772855 L395.794493,23.0077154 L473.285787,24.9946717 L552.035262,104.740975 L552.096196,105.080468 L552.32921,105.038645 L552.495553,105.207093 L552.740975,104.964738 L591.544516,98 L631.107042,98 L631.132342,98.1040096 L631.559937,98 L632,98 L632,97.8929576 L668.571631,88.9971556 L710.409618,87.0048705 L750.30443,103.960165 L750.764595,104.155736 L751.155736,103.235405 L750.69557,103.039835 L710.984501,86.1626302 L710.975651,85.9767834 L710.590382,85.9951295 L710.235405,85.8442642 L710.16263,86.0154987 L710.16263,86.0154987 L710.16263,86.0154987 Z" id="Line" stroke="#FC4D2D" fill="#FC4D2D"></path>
                            </g>
                        </g>
                    </g>
                </g>
            </g>
        </g>
    </g>
</svg>